<svg width="450" height="51" viewBox="0 0 450 51" fill="none" xmlns="http://www.w3.org/2000/svg">
<path d="M23.979 50.6209C19.287 50.6209 15.17 49.6089 11.628 47.5849C8.13201 45.5609 5.44101 42.6629 3.55501 38.8909C1.66901 35.1189 0.726013 30.7029 0.726013 25.6429C0.726013 20.5829 1.66901 16.1899 3.55501 12.4639C5.44101 8.69189 8.13201 5.79389 11.628 3.76989C15.17 1.74589 19.287 0.733887 23.979 0.733887C27.015 0.733887 29.867 1.19389 32.535 2.11389C35.203 2.98789 37.572 4.27589 39.642 5.97789C40.24 6.43789 40.654 6.92089 40.884 7.42689C41.114 7.93289 41.229 8.55389 41.229 9.28989C41.229 10.3019 40.953 11.1529 40.401 11.8429C39.849 12.5329 39.182 12.8779 38.4 12.8779C37.48 12.8779 36.537 12.5559 35.571 11.9119C33.593 10.4399 31.753 9.42789 30.051 8.87589C28.349 8.27789 26.463 7.97889 24.393 7.97889C19.609 7.97889 15.975 9.47389 13.491 12.4639C11.053 15.4539 9.83401 19.8469 9.83401 25.6429C9.83401 31.4849 11.053 35.9009 13.491 38.8909C15.975 41.8809 19.609 43.3759 24.393 43.3759C26.371 43.3759 28.188 43.0769 29.844 42.4789C31.546 41.8809 33.455 40.8689 35.571 39.4429C36.031 39.1669 36.491 38.9369 36.951 38.7529C37.411 38.5689 37.894 38.4769 38.4 38.4769C39.182 38.4769 39.849 38.8219 40.401 39.5119C40.953 40.2019 41.229 41.0529 41.229 42.0649C41.229 42.7549 41.114 43.3759 40.884 43.9279C40.654 44.4339 40.24 44.9169 39.642 45.3769C37.572 47.0789 35.203 48.3899 32.535 49.3099C29.867 50.1839 27.015 50.6209 23.979 50.6209Z" fill="black"/>
<path d="M89.0967 1.00989C90.4307 1.00989 91.4887 1.42389 92.2707 2.25189C93.0527 3.03389 93.4437 4.09189 93.4437 5.42589V45.9289C93.4437 47.2629 93.0297 48.3439 92.2017 49.1719C91.4197 49.9999 90.3847 50.4139 89.0967 50.4139C87.7627 50.4139 86.7047 49.9999 85.9227 49.1719C85.1407 48.3439 84.7497 47.2629 84.7497 45.9289V28.8859H59.8407V45.9289C59.8407 47.2629 59.4267 48.3439 58.5987 49.1719C57.8167 49.9999 56.7587 50.4139 55.4247 50.4139C54.1367 50.4139 53.0787 49.9999 52.2507 49.1719C51.4687 48.3439 51.0777 47.2629 51.0777 45.9289V5.42589C51.0777 4.09189 51.4687 3.03389 52.2507 2.25189C53.0327 1.42389 54.0907 1.00989 55.4247 1.00989C56.7587 1.00989 57.8167 1.42389 58.5987 2.25189C59.4267 3.03389 59.8407 4.09189 59.8407 5.42589V21.7099H84.7497V5.42589C84.7497 4.09189 85.1407 3.03389 85.9227 2.25189C86.7047 1.42389 87.7627 1.00989 89.0967 1.00989Z" fill="black"/>
<path d="M108.184 49.9999C106.85 49.9999 105.792 49.6319 105.01 48.8959C104.274 48.1599 103.906 47.1249 103.906 45.7909V5.56389C103.906 4.22989 104.274 3.19489 105.01 2.45889C105.792 1.72289 106.85 1.35489 108.184 1.35489H133.093C134.427 1.35489 135.462 1.65389 136.198 2.25189C136.934 2.84989 137.302 3.70089 137.302 4.80489C137.302 5.95489 136.934 6.85189 136.198 7.49589C135.462 8.09389 134.427 8.39289 133.093 8.39289H112.6V21.7789H131.713C133.047 21.7789 134.082 22.0779 134.818 22.6759C135.554 23.2739 135.922 24.1479 135.922 25.2979C135.922 26.4019 135.554 27.2529 134.818 27.8509C134.082 28.4489 133.047 28.7479 131.713 28.7479H112.6V42.9619H133.093C134.427 42.9619 135.462 43.2839 136.198 43.9279C136.934 44.5259 137.302 45.3999 137.302 46.5499C137.302 47.6539 136.934 48.5049 136.198 49.1029C135.462 49.7009 134.427 49.9999 133.093 49.9999H108.184Z" fill="black"/>
<path d="M167.653 50.6209C162.961 50.6209 158.844 49.6089 155.302 47.5849C151.806 45.5609 149.115 42.6629 147.229 38.8909C145.343 35.1189 144.4 30.7029 144.4 25.6429C144.4 20.5829 145.343 16.1899 147.229 12.4639C149.115 8.69189 151.806 5.79389 155.302 3.76989C158.844 1.74589 162.961 0.733887 167.653 0.733887C170.689 0.733887 173.541 1.19389 176.209 2.11389C178.877 2.98789 181.246 4.27589 183.316 5.97789C183.914 6.43789 184.328 6.92089 184.558 7.42689C184.788 7.93289 184.903 8.55389 184.903 9.28989C184.903 10.3019 184.627 11.1529 184.075 11.8429C183.523 12.5329 182.856 12.8779 182.074 12.8779C181.154 12.8779 180.211 12.5559 179.245 11.9119C177.267 10.4399 175.427 9.42789 173.725 8.87589C172.023 8.27789 170.137 7.97889 168.067 7.97889C163.283 7.97889 159.649 9.47389 157.165 12.4639C154.727 15.4539 153.508 19.8469 153.508 25.6429C153.508 31.4849 154.727 35.9009 157.165 38.8909C159.649 41.8809 163.283 43.3759 168.067 43.3759C170.045 43.3759 171.862 43.0769 173.518 42.4789C175.22 41.8809 177.129 40.8689 179.245 39.4429C179.705 39.1669 180.165 38.9369 180.625 38.7529C181.085 38.5689 181.568 38.4769 182.074 38.4769C182.856 38.4769 183.523 38.8219 184.075 39.5119C184.627 40.2019 184.903 41.0529 184.903 42.0649C184.903 42.7549 184.788 43.3759 184.558 43.9279C184.328 44.4339 183.914 44.9169 183.316 45.3769C181.246 47.0789 178.877 48.3899 176.209 49.3099C173.541 50.1839 170.689 50.6209 167.653 50.6209Z" fill="black"/>
<path d="M232.494 43.3069C233.414 44.1809 233.874 45.1699 233.874 46.2739C233.874 47.3319 233.46 48.2749 232.632 49.1029C231.85 49.8849 230.907 50.2759 229.803 50.2759C228.653 50.2759 227.595 49.7929 226.629 48.8269L203.652 27.2989V45.9289C203.652 47.2629 203.238 48.3439 202.41 49.1719C201.628 49.9999 200.547 50.4139 199.167 50.4139C197.833 50.4139 196.752 49.9999 195.924 49.1719C195.142 48.3439 194.751 47.2629 194.751 45.9289V5.42589C194.751 4.09189 195.142 3.03389 195.924 2.25189C196.752 1.42389 197.833 1.00989 199.167 1.00989C200.547 1.00989 201.628 1.42389 202.41 2.25189C203.238 3.03389 203.652 4.09189 203.652 5.42589V23.1589L225.87 2.32089C226.698 1.49289 227.641 1.07889 228.699 1.07889C229.757 1.07889 230.677 1.49289 231.459 2.32089C232.287 3.10289 232.701 4.02289 232.701 5.08089C232.701 6.13889 232.241 7.10489 231.321 7.97889L212.76 24.9529L232.494 43.3069Z" fill="black"/>
<path d="M248.168 50.4139C246.834 50.4139 245.753 50.0229 244.925 49.2409C244.143 48.4129 243.752 47.3089 243.752 45.9289V5.56389C243.752 4.22989 244.12 3.19489 244.856 2.45889C245.638 1.72289 246.696 1.35489 248.03 1.35489H265.004C270.202 1.35489 274.25 2.66589 277.148 5.28789C280.046 7.86389 281.495 11.4979 281.495 16.1899C281.495 20.8819 280.046 24.5389 277.148 27.1609C274.25 29.7829 270.202 31.0939 265.004 31.0939H252.653V45.9289C252.653 47.3089 252.239 48.4129 251.411 49.2409C250.629 50.0229 249.548 50.4139 248.168 50.4139ZM263.9 24.2629C270.018 24.2629 273.077 21.5949 273.077 16.2589C273.077 10.9229 270.018 8.25489 263.9 8.25489H252.653V24.2629H263.9Z" fill="black"/>
<path d="M309.589 50.6209C304.851 50.6209 300.734 49.6089 297.238 47.5849C293.788 45.5609 291.12 42.6629 289.234 38.8909C287.348 35.1189 286.405 30.7029 286.405 25.6429C286.405 20.5829 287.325 16.1899 289.165 12.4639C291.051 8.69189 293.742 5.79389 297.238 3.76989C300.734 1.74589 304.851 0.733887 309.589 0.733887C314.327 0.733887 318.421 1.74589 321.871 3.76989C325.367 5.79389 328.035 8.69189 329.875 12.4639C331.761 16.1899 332.704 20.5829 332.704 25.6429C332.704 30.7029 331.761 35.1189 329.875 38.8909C327.989 42.6629 325.298 45.5609 321.802 47.5849C318.352 49.6089 314.281 50.6209 309.589 50.6209ZM309.589 43.5139C314.051 43.5139 317.524 41.9729 320.008 38.8909C322.538 35.8089 323.803 31.3929 323.803 25.6429C323.803 19.8929 322.538 15.4999 320.008 12.4639C317.524 9.38189 314.051 7.84089 309.589 7.84089C305.081 7.84089 301.562 9.38189 299.032 12.4639C296.548 15.4999 295.306 19.8929 295.306 25.6429C295.306 31.3929 296.548 35.8089 299.032 38.8909C301.562 41.9729 305.081 43.5139 309.589 43.5139Z" fill="black"/>
<path d="M345.42 50.4139C344.086 50.4139 343.005 49.9999 342.177 49.1719C341.395 48.3439 341.004 47.2629 341.004 45.9289V5.42589C341.004 4.09189 341.395 3.03389 342.177 2.25189C343.005 1.42389 344.086 1.00989 345.42 1.00989C346.8 1.00989 347.881 1.42389 348.663 2.25189C349.491 3.03389 349.905 4.09189 349.905 5.42589V45.9289C349.905 47.2629 349.491 48.3439 348.663 49.1719C347.881 49.9999 346.8 50.4139 345.42 50.4139Z" fill="black"/>
<path d="M395.877 1.00989C397.165 1.00989 398.177 1.42389 398.913 2.25189C399.695 3.03389 400.086 4.09189 400.086 5.42589V45.9289C400.086 47.2629 399.695 48.3439 398.913 49.1719C398.131 49.9999 397.119 50.4139 395.877 50.4139C394.405 50.4139 393.278 49.8849 392.496 48.8269L367.311 16.0519V45.9289C367.311 47.2629 366.943 48.3439 366.207 49.1719C365.471 49.9999 364.459 50.4139 363.171 50.4139C361.883 50.4139 360.871 49.9999 360.135 49.1719C359.399 48.3439 359.031 47.2629 359.031 45.9289V5.42589C359.031 4.09189 359.422 3.03389 360.204 2.25189C360.986 1.42389 362.021 1.00989 363.309 1.00989C364.735 1.00989 365.839 1.53889 366.621 2.59689L391.737 35.2339V5.42589C391.737 4.09189 392.105 3.03389 392.841 2.25189C393.623 1.42389 394.635 1.00989 395.877 1.00989Z" fill="black"/>
<path d="M427.897 50.3449C426.517 50.3449 425.413 49.9539 424.585 49.1719C423.803 48.3439 423.412 47.2629 423.412 45.9289V8.66889H410.854C408.094 8.66889 406.714 7.44989 406.714 5.01189C406.714 2.57389 408.094 1.35489 410.854 1.35489H444.871C447.631 1.35489 449.011 2.57389 449.011 5.01189C449.011 7.44989 447.631 8.66889 444.871 8.66889H432.313V45.9289C432.313 47.2629 431.899 48.3439 431.071 49.1719C430.289 49.9539 429.231 50.3449 427.897 50.3449Z" fill="black"/>
</svg>
