<svg width="221" height="318" viewBox="0 0 221 318" fill="none" xmlns="http://www.w3.org/2000/svg">
<path fill-rule="evenodd" clip-rule="evenodd" d="M110.5 317.519C132.23 318.915 221 172.725 221 111.271C221 49.8178 171.527 0 110.5 0C49.4725 0 0 49.8178 0 111.271C0 172.725 88.7699 316.122 110.5 317.519ZM110.5 190.517C154.692 190.517 190.517 154.692 190.517 110.5C190.517 66.3078 154.692 30.4828 110.5 30.4828C66.3076 30.4828 30.4827 66.3078 30.4827 110.5C30.4827 154.692 66.3076 190.517 110.5 190.517Z" fill="black"/>
<path fill-rule="evenodd" clip-rule="evenodd" d="M167.594 123.829C167.309 117.182 166.17 109.811 164.461 102.874C162.753 96.2263 160.617 90.012 158.054 85.2429C148.088 67.467 137.267 70.2129 124.311 73.6813C123.942 73.7717 123.571 73.8632 123.198 73.9552C119.392 74.8937 115.361 75.8878 111.212 76.2827H109.788C105.639 75.8878 101.607 74.8937 97.8019 73.9552C97.429 73.8632 97.0576 73.7716 96.6891 73.6813L96.4744 73.6263C83.6131 70.3261 72.8568 67.5661 62.9454 85.3874C60.3826 90.1565 58.1045 96.3708 56.5384 103.019C54.8298 109.956 53.6908 117.326 53.4061 123.974C53.1213 131.344 53.8332 136.692 55.3994 140.449C56.9655 143.918 59.2436 146.085 62.2335 146.953C64.9387 147.675 68.071 147.386 71.3457 145.941C76.8985 143.629 83.3055 138.715 89.5702 132.79C93.9839 128.454 102.242 126.286 110.5 126.286C118.758 126.286 127.016 128.454 131.429 132.79C137.694 138.715 144.101 143.629 149.654 145.941C152.929 147.242 156.061 147.675 158.766 146.953C161.614 146.085 164.034 144.062 165.6 140.305C167.166 136.692 167.878 131.344 167.594 123.829ZM141.675 110.544C141.675 113.446 139.349 115.799 136.479 115.799C133.61 115.799 131.284 113.446 131.284 110.544C131.284 107.641 133.61 105.288 136.479 105.288C139.349 105.288 141.675 107.641 141.675 110.544ZM136.479 94.7768C139.349 94.7768 141.675 92.4238 141.675 89.5212C141.675 86.6186 139.349 84.2655 136.479 84.2655C133.61 84.2655 131.284 86.6186 131.284 89.5212C131.284 92.4238 133.61 94.7768 136.479 94.7768ZM131.284 100.032C131.284 102.935 128.957 105.288 126.088 105.288C123.218 105.288 120.892 102.935 120.892 100.032C120.892 97.1299 123.218 94.7768 126.088 94.7768C128.957 94.7768 131.284 97.1299 131.284 100.032ZM146.871 105.288C149.741 105.288 152.067 102.935 152.067 100.032C152.067 97.1299 149.741 94.7768 146.871 94.7768C144.002 94.7768 141.675 97.1299 141.675 100.032C141.675 102.935 144.002 105.288 146.871 105.288ZM86.2437 86.8934C86.7265 86.8934 87.118 87.2893 87.118 87.7776V94.7768H94.0376C94.5204 94.7768 94.9118 95.1727 94.9118 95.6611V101.776C94.9118 102.264 94.5204 102.66 94.0376 102.66H87.118V109.659C87.118 110.148 86.7265 110.544 86.2437 110.544H80.1983C79.7155 110.544 79.3241 110.148 79.3241 109.659V102.66H72.4044C71.9216 102.66 71.5302 102.264 71.5302 101.776V95.6611C71.5302 95.1727 71.9216 94.7768 72.4044 94.7768H79.3241V87.7776C79.3241 87.2893 79.7155 86.8934 80.1983 86.8934H86.2437Z" fill="black"/>
</svg>
