<svg fill="none" height="361" viewBox="0 0 450 361" width="450" xmlns="http://www.w3.org/2000/svg"><g fill="#000"><path clip-rule="evenodd" d="m224 255.739c17.502 1.125 89-116.621 89-166.1178 0-49.4964-39.847-89.6212-89-89.6212s-89 40.1248-89 89.6212c0 49.4968 71.498 164.9928 89 166.1178zm0-102.291c35.594 0 64.448-28.854 64.448-64.4479 0-35.5938-28.854-64.4483-64.448-64.4483s-64.448 28.8545-64.448 64.4483c0 35.5939 28.854 64.4479 64.448 64.4479z" fill-rule="evenodd"/><path clip-rule="evenodd" d="m269.985 99.736c-.23-5.3544-1.147-11.2908-2.523-16.878-1.376-5.3544-3.096-10.3596-5.16-14.2008-8.028-14.3172-16.743-12.1056-27.179-9.312-.297.0727-.595.1464-.896.2205-3.065.7559-6.312 1.5567-9.654 1.8747h-1.147c-3.342-.318-6.588-1.1188-9.653-1.8747-.301-.074-.6-.1478-.897-.2205l-.173-.0444c-10.359-2.6581-19.022-4.8811-27.005 9.4728-2.064 3.8412-3.899 8.8464-5.16 14.2008-1.376 5.5872-2.294 11.5236-2.523 16.878-.23 5.9366.344 10.2436 1.605 13.2696 1.262 2.794 3.097 4.54 5.505 5.238 2.179.582 4.701.349 7.339-.815 4.472-1.862 9.633-5.82 14.678-10.592 3.555-3.492 10.207-5.238 16.858-5.238s13.302 1.746 16.857 5.238c5.046 4.772 10.206 8.73 14.679 10.592 2.637 1.048 5.16 1.397 7.339.815 2.293-.698 4.243-2.328 5.504-5.354 1.262-2.91 1.835-7.217 1.606-13.27zm-20.875-10.7007c0 2.3378-1.874 4.233-4.185 4.233-2.312 0-4.185-1.8952-4.185-4.233 0-2.3379 1.873-4.2331 4.185-4.2331 2.311 0 4.185 1.8952 4.185 4.2331zm-4.185-12.6992c2.311 0 4.185-1.8952 4.185-4.233 0-2.3379-1.874-4.2331-4.185-4.2331-2.312 0-4.185 1.8952-4.185 4.2331 0 2.3378 1.873 4.233 4.185 4.233zm-4.185 4.2331c0 2.3378-1.874 4.233-4.185 4.233-2.312 0-4.185-1.8952-4.185-4.233 0-2.3379 1.873-4.2331 4.185-4.2331 2.311 0 4.185 1.8952 4.185 4.2331zm12.555 4.233c2.311 0 4.184-1.8952 4.184-4.233 0-2.3379-1.873-4.2331-4.184-4.2331-2.312 0-4.185 1.8952-4.185 4.2331 0 2.3378 1.873 4.233 4.185 4.233zm-48.832-14.8157c.389 0 .704.3189.704.7123v5.6373h5.574c.389 0 .704.3189.704.7122v4.9251c0 .3934-.315.7123-.704.7123h-5.574v5.6373c0 .3934-.315.7123-.704.7123h-4.869c-.389 0-.704-.3189-.704-.7123v-5.6373h-5.573c-.389 0-.704-.3189-.704-.7123v-4.9251c0-.3933.315-.7122.704-.7122h5.573v-5.6373c0-.3934.315-.7123.704-.7123z" fill-rule="evenodd"/><path d="m23.9791 360.621c-4.692 0-8.809-1.012-12.351-3.036-3.49603-2.024-6.18703-4.922-8.07303-8.694s-2.828996-8.188-2.828996-13.248.942996-9.453 2.828996-13.179c1.886-3.772 4.577-6.67 8.07303-8.694 3.542-2.024 7.659-3.036 12.351-3.036 3.036 0 5.888.46 8.556 1.38 2.668.874 5.037 2.162 7.107 3.864.598.46 1.012.943 1.242 1.449s.345 1.127.345 1.863c0 1.012-.276 1.863-.828 2.553s-1.219 1.035-2.001 1.035c-.92 0-1.863-.322-2.829-.966-1.978-1.472-3.818-2.484-5.52-3.036-1.702-.598-3.588-.897-5.658-.897-4.784 0-8.418 1.495-10.902 4.485-2.438 2.99-3.65703 7.383-3.65703 13.179 0 5.842 1.21903 10.258 3.65703 13.248 2.484 2.99 6.118 4.485 10.902 4.485 1.978 0 3.795-.299 5.451-.897 1.702-.598 3.611-1.61 5.727-3.036.46-.276.92-.506 1.38-.69s.943-.276 1.449-.276c.782 0 1.449.345 2.001 1.035s.828 1.541.828 2.553c0 .69-.115 1.311-.345 1.863-.23.506-.644.989-1.242 1.449-2.07 1.702-4.439 3.013-7.107 3.933-2.668.874-5.52 1.311-8.556 1.311z"/><path d="m89.0967 311.01c1.334 0 2.3921.414 3.1741 1.242.782.782 1.1729 1.84 1.1729 3.174v40.503c0 1.334-.4139 2.415-1.2419 3.243-.782.828-1.8171 1.242-3.1051 1.242-1.334 0-2.392-.414-3.174-1.242s-1.173-1.909-1.173-3.243v-17.043h-24.909v17.043c0 1.334-.414 2.415-1.242 3.243-.782.828-1.84 1.242-3.174 1.242-1.288 0-2.346-.414-3.174-1.242-.782-.828-1.173-1.909-1.173-3.243v-40.503c0-1.334.391-2.392 1.173-3.174.782-.828 1.84-1.242 3.174-1.242s2.392.414 3.174 1.242c.828.782 1.242 1.84 1.242 3.174v16.284h24.909v-16.284c0-1.334.391-2.392 1.173-3.174.782-.828 1.84-1.242 3.174-1.242z"/><path d="m108.184 360c-1.334 0-2.392-.368-3.174-1.104-.736-.736-1.104-1.771-1.104-3.105v-40.227c0-1.334.368-2.369 1.104-3.105.782-.736 1.84-1.104 3.174-1.104h24.909c1.334 0 2.369.299 3.105.897s1.104 1.449 1.104 2.553c0 1.15-.368 2.047-1.104 2.691-.736.598-1.771.897-3.105.897h-20.493v13.386h19.113c1.334 0 2.369.299 3.105.897s1.104 1.472 1.104 2.622c0 1.104-.368 1.955-1.104 2.553s-1.771.897-3.105.897h-19.113v14.214h20.493c1.334 0 2.369.322 3.105.966.736.598 1.104 1.472 1.104 2.622 0 1.104-.368 1.955-1.104 2.553s-1.771.897-3.105.897z"/><path d="m167.653 360.621c-4.692 0-8.809-1.012-12.351-3.036-3.496-2.024-6.187-4.922-8.073-8.694s-2.829-8.188-2.829-13.248.943-9.453 2.829-13.179c1.886-3.772 4.577-6.67 8.073-8.694 3.542-2.024 7.659-3.036 12.351-3.036 3.036 0 5.888.46 8.556 1.38 2.668.874 5.037 2.162 7.107 3.864.598.46 1.012.943 1.242 1.449s.345 1.127.345 1.863c0 1.012-.276 1.863-.828 2.553s-1.219 1.035-2.001 1.035c-.92 0-1.863-.322-2.829-.966-1.978-1.472-3.818-2.484-5.52-3.036-1.702-.598-3.588-.897-5.658-.897-4.784 0-8.418 1.495-10.902 4.485-2.438 2.99-3.657 7.383-3.657 13.179 0 5.842 1.219 10.258 3.657 13.248 2.484 2.99 6.118 4.485 10.902 4.485 1.978 0 3.795-.299 5.451-.897 1.702-.598 3.611-1.61 5.727-3.036.46-.276.92-.506 1.38-.69s.943-.276 1.449-.276c.782 0 1.449.345 2.001 1.035s.828 1.541.828 2.553c0 .69-.115 1.311-.345 1.863-.23.506-.644.989-1.242 1.449-2.07 1.702-4.439 3.013-7.107 3.933-2.668.874-5.52 1.311-8.556 1.311z"/><path d="m232.494 353.307c.92.874 1.38 1.863 1.38 2.967 0 1.058-.414 2.001-1.242 2.829-.782.782-1.725 1.173-2.829 1.173-1.15 0-2.208-.483-3.174-1.449l-22.977-21.528v18.63c0 1.334-.414 2.415-1.242 3.243-.782.828-1.863 1.242-3.243 1.242-1.334 0-2.415-.414-3.243-1.242-.782-.828-1.173-1.909-1.173-3.243v-40.503c0-1.334.391-2.392 1.173-3.174.828-.828 1.909-1.242 3.243-1.242 1.38 0 2.461.414 3.243 1.242.828.782 1.242 1.84 1.242 3.174v17.733l22.218-20.838c.828-.828 1.771-1.242 2.829-1.242s1.978.414 2.76 1.242c.828.782 1.242 1.702 1.242 2.76s-.46 2.024-1.38 2.898l-18.561 16.974z"/><path d="m248.168 360.414c-1.334 0-2.415-.391-3.243-1.173-.782-.828-1.173-1.932-1.173-3.312v-40.365c0-1.334.368-2.369 1.104-3.105.782-.736 1.84-1.104 3.174-1.104h16.974c5.198 0 9.246 1.311 12.144 3.933 2.898 2.576 4.347 6.21 4.347 10.902s-1.449 8.349-4.347 10.971-6.946 3.933-12.144 3.933h-12.351v14.835c0 1.38-.414 2.484-1.242 3.312-.782.782-1.863 1.173-3.243 1.173zm15.732-26.151c6.118 0 9.177-2.668 9.177-8.004s-3.059-8.004-9.177-8.004h-11.247v16.008z"/><path d="m309.589 360.621c-4.738 0-8.855-1.012-12.351-3.036-3.45-2.024-6.118-4.922-8.004-8.694s-2.829-8.188-2.829-13.248.92-9.453 2.76-13.179c1.886-3.772 4.577-6.67 8.073-8.694s7.613-3.036 12.351-3.036 8.832 1.012 12.282 3.036c3.496 2.024 6.164 4.922 8.004 8.694 1.886 3.726 2.829 8.119 2.829 13.179s-.943 9.476-2.829 13.248-4.577 6.67-8.073 8.694c-3.45 2.024-7.521 3.036-12.213 3.036zm0-7.107c4.462 0 7.935-1.541 10.419-4.623 2.53-3.082 3.795-7.498 3.795-13.248s-1.265-10.143-3.795-13.179c-2.484-3.082-5.957-4.623-10.419-4.623-4.508 0-8.027 1.541-10.557 4.623-2.484 3.036-3.726 7.429-3.726 13.179s1.242 10.166 3.726 13.248c2.53 3.082 6.049 4.623 10.557 4.623z"/><path d="m345.42 360.414c-1.334 0-2.415-.414-3.243-1.242-.782-.828-1.173-1.909-1.173-3.243v-40.503c0-1.334.391-2.392 1.173-3.174.828-.828 1.909-1.242 3.243-1.242 1.38 0 2.461.414 3.243 1.242.828.782 1.242 1.84 1.242 3.174v40.503c0 1.334-.414 2.415-1.242 3.243-.782.828-1.863 1.242-3.243 1.242z"/><path d="m395.877 311.01c1.288 0 2.3.414 3.036 1.242.782.782 1.173 1.84 1.173 3.174v40.503c0 1.334-.391 2.415-1.173 3.243s-1.794 1.242-3.036 1.242c-1.472 0-2.599-.529-3.381-1.587l-25.185-32.775v29.877c0 1.334-.368 2.415-1.104 3.243s-1.748 1.242-3.036 1.242-2.3-.414-3.036-1.242-1.104-1.909-1.104-3.243v-40.503c0-1.334.391-2.392 1.173-3.174.782-.828 1.817-1.242 3.105-1.242 1.426 0 2.53.529 3.312 1.587l25.116 32.637v-29.808c0-1.334.368-2.392 1.104-3.174.782-.828 1.794-1.242 3.036-1.242z"/><path d="m427.898 360.345c-1.38 0-2.484-.391-3.312-1.173-.782-.828-1.173-1.909-1.173-3.243v-37.26h-12.558c-2.76 0-4.14-1.219-4.14-3.657s1.38-3.657 4.14-3.657h34.017c2.76 0 4.14 1.219 4.14 3.657s-1.38 3.657-4.14 3.657h-12.558v37.26c0 1.334-.414 2.415-1.242 3.243-.782.782-1.84 1.173-3.174 1.173z"/></g></svg>